PathFileType	4	(x/y/z)	S09_M20_T07
DataRate	CameraRate	NumFrames	NumMarkers	Units	OrigDataRate	OrigDataStartFrame	OrigNumFrames
240	240	6	51	mm	240	1	570
Frame#	Time	Sternum			R.Acromium			L.Acromium			Top.Head			R.ASIS			L.ASIS			R.PSIS			L.PSIS			R.Great.Tro			L.Great.Tro			R.Iliac.Crest			L.Iliac.Crest			V.Sacral			R.Thigh.Upper.Post			R.Thigh.Lower.Ant			R.Thigh.Lower.Post			R.Thigh.Upper.Ant			R.Knee.Lat			R.Knee.Med			R.Shank.Upper.Post			R.Shank.Lower.Ant			R.Shank.Lower.Post			R.Shank.Upper.Ant			R.Ankle.Lat			R.Ankle.Med			R.Heel.Upper			R.Heel.Med			R.Heel.Lat			R.Toe.Lat			R.Toe.Med			R.Toe.Tip			L.Thigh.Upper.Post			L.Thigh.Lower.Ant			L.Thigh.Lower.Post			L.Thigh.Upper.Ant			L.Knee.Lat			L.Knee.Med			L.Shank.Upper.Post			L.Shank.Lower.Ant			L.Shank.Lower.Post			L.Shank.Upper.Ant			L.Ankle.Lat			L.Ankle.Med			L.Heel.Upper			L.Heel.Med			L.Heel.Lat			L.Toe.Lat			L.Toe.Med			L.Toe.Tip			Cervical.Spine			Back			
		X1	Y1	Z1	X2	Y2	Z2	X3	Y3	Z3	X4	Y4	Z4	X5	Y5	Z5	X6	Y6	Z6	X7	Y7	Z7	X8	Y8	Z8	X9	Y9	Z9	X10	Y10	Z10	X11	Y11	Z11	X12	Y12	Z12	X13	Y13	Z13	X14	Y14	Z14	X15	Y15	Z15	X16	Y16	Z16	X17	Y17	Z17	X18	Y18	Z18	X19	Y19	Z19	X20	Y20	Z20	X21	Y21	Z21	X22	Y22	Z22	X23	Y23	Z23	X24	Y24	Z24	X25	Y25	Z25	X26	Y26	Z26	X27	Y27	Z27	X28	Y28	Z28	X29	Y29	Z29	X30	Y30	Z30	X31	Y31	Z31	X32	Y32	Z32	X33	Y33	Z33	X34	Y34	Z34	X35	Y35	Z35	X36	Y36	Z36	X37	Y37	Z37	X38	Y38	Z38	X39	Y39	Z39	X40	Y40	Z40	X41	Y41	Z41	X42	Y42	Z42	X43	Y43	Z43	X44	Y44	Z44	X45	Y45	Z45	X46	Y46	Z46	X47	Y47	Z47	X48	Y48	Z48	X49	Y49	Z49	X50	Y50	Z50	X51	Y51	Z51	

1	0	-905.38	1159.2	338.59	-1025	1412.1	478.03	-1035.6	1401.4	170.97	-1026.6	1706.4	310.66	-954.08	997.53	456.44	-934.59	996.63	208.02	-1169.3	1023.9	358.8	-1161.2	1017.9	269.83	-1050.4	916.64	522.49	-996.5	902.07	135.39	-1049.9	1079.6	494.62	-1049.8	1082.9	164.08	-1185	986.06	310.59	-1125.1	675.85	481.45	-1082.7	560.32	444.03	-1155.3	591.26	449.67	-1060.9	643.67	474.61	-1133	495.04	432.19	-1134.6	491.19	311.92	-1267.4	359.33	430.95	-1229.6	278.32	419.94	NaN	NaN	NaN	-1204.6	346.93	434.35	-1352.9	114.72	393.19	-1322.8	115.58	306.51	-1419.3	101.11	341.33	-1412.2	66.148	315.56	-1424.7	74.753	378.7	-1269.3	42.614	439.12	-1214.7	39.519	334.67	-1168.6	46.236	384.61	-962.72	637.65	177.31	-879.49	577.73	170.02	NaN	NaN	NaN	-895.43	653.97	151.56	-827.32	510.2	186.87	-818.79	522.76	325.58	-803.79	372.08	177.22	-702.08	326.64	183.93	-765.04	305.44	182.43	-742.31	392.86	179.6	-641.58	140.91	201.55	-616.73	151.43	292.07	-668.95	65.843	262.13	-639.26	56.3	290.5	-653.52	43.157	231.18	-522.64	146.99	157.54	-485.15	179.88	260.42	-465.46	221.36	198.5	-1117.2	1462	336.02	-1171.8	1193.7	327.39
2	0.0041667	-900.31	1158.4	338.04	-1020.2	1411.1	477.46	-1030.8	1400.5	170.38	-1022	1705.5	310.1	-949.1	996.55	456.17	-929.2	995.98	207.77	-1164.1	1023.3	358.25	-1155.1	1016.9	269.41	-1045.8	915.79	522.11	-990.82	901.5	135.02	-1044.8	1078.7	494.27	-1044.4	1082.2	163.75	-1179.4	985.3	310.03	-1121.6	675.54	481.1	-1079.6	559.75	444	-1152.1	591.08	449.47	-1057.5	643.07	474.45	-1130.2	494.68	431.98	-1131.5	490.6	311.71	-1265.6	359.77	430.6	-1227.9	278.53	419.83	NaN	NaN	NaN	-1202.6	347	434.22	-1352	115.44	393.22	-1321.9	116.16	306.51	-1418.7	102.26	341.34	-1411.8	67.28	315.51	-1424.3	75.949	378.65	-1269.2	42.715	439.14	-1214.6	39.501	334.8	-1168.4	46.123	384.72	-956.26	637.22	176.75	-873.92	577.14	170.25	NaN	NaN	NaN	-888.9	653.75	151.6	-820.88	509.87	187.14	-813.06	522.46	325.67	-798.15	371.62	177.24	-696.83	325.53	184.37	-759.9	304.7	182.53	-736.61	392.01	180.01	-637.82	139.53	201.85	-613.24	149.63	292.54	-665.61	64.395	262.24	-636.02	54.612	290.55	-650.19	41.775	231.23	-518.95	145.51	158.16	-481.53	177.9	261.23	-461.74	219.62	199.51	-1111.8	1461	335.44	-1166.3	1192.5	326.88
3	0.0083333	-895	1157.6	337.48	-1015.2	1410	476.87	-1025.8	1399.5	169.77	-1017.1	1704.7	309.51	-943.89	995.53	455.88	-923.56	995.29	207.5	-1158.6	1022.6	357.66	-1148.7	1015.9	268.94	-1040.9	914.9	521.71	-984.88	900.89	134.63	-1039.6	1077.8	493.89	-1038.8	1081.5	163.4	-1173.5	984.52	309.45	-1117.9	675.23	480.74	-1076.4	559.14	443.96	-1148.7	590.89	449.25	-1054	642.44	474.28	-1127.3	494.3	431.76	-1128.3	489.99	311.5	-1263.7	360.23	430.23	-1226.2	278.76	419.72	NaN	NaN	NaN	-1200.4	347.07	434.08	-1351.1	116.22	393.26	-1321.1	116.77	306.51	-1418.1	103.48	341.36	-1411.4	68.48	315.46	-1423.8	77.222	378.6	-1269	42.823	439.16	-1214.5	39.485	334.92	-1168.3	46.006	384.82	-949.53	636.76	176.18	-868.07	576.52	170.48	NaN	NaN	NaN	-882.09	653.5	151.65	-814.17	509.51	187.41	-807.08	522.15	325.77	-792.3	371.13	177.24	-691.4	324.35	184.83	-754.58	303.91	182.63	-730.7	391.11	180.44	-633.98	138.06	202.16	-609.69	147.72	293.02	-662.22	62.925	262.33	-632.76	52.88	290.59	-646.83	40.358	231.28	-515.18	143.91	158.8	-477.83	175.78	262.06	-457.93	217.74	200.55	-1106.3	1459.8	334.84	-1160.6	1191.4	326.36
4	0.0125	-889.48	1156.8	336.89	-1010	1409	476.26	-1020.5	1398.6	169.14	-1012.2	1703.7	308.89	-938.48	994.46	455.57	-917.7	994.57	207.21	-1152.9	1021.8	357.05	-1142.2	1014.9	268.45	-1035.9	913.98	521.28	-978.7	900.25	134.22	-1034.1	1076.8	493.49	-1033	1080.8	163.02	-1167.5	983.71	308.83	-1114.1	674.89	480.37	-1073.1	558.51	443.9	-1145.1	590.68	449.01	-1050.3	641.78	474.09	-1124.3	493.9	431.53	-1124.9	489.35	311.27	-1261.7	360.7	429.83	-1224.4	279	419.6	NaN	NaN	NaN	-1198.2	347.14	433.93	-1350.2	117.04	393.29	-1320.2	117.41	306.52	-1417.5	104.78	341.37	-1410.9	69.743	315.41	-1423.4	78.572	378.55	-1268.9	42.939	439.18	-1214.3	39.472	335.05	-1168.1	45.886	384.93	-942.58	636.27	175.61	-861.99	575.88	170.7	NaN	NaN	NaN	-875.05	653.23	151.71	-807.24	509.13	187.7	-800.89	521.82	325.87	-786.28	370.61	177.25	-685.83	323.1	185.31	-749.13	303.08	182.73	-724.6	390.15	180.88	-630.1	136.51	202.46	-606.09	145.71	293.5	-658.84	61.452	262.41	-629.51	51.125	290.63	-643.5	38.921	231.31	-511.39	142.19	159.43	-474.1	173.52	262.89	-454.07	215.71	201.58	-1100.6	1458.7	334.21	-1154.7	1190.2	325.81
5	0.016667	-883.79	1156	336.3	-1004.6	1407.9	475.62	-1015.2	1397.6	168.48	-1007	1702.8	308.26	-932.88	993.37	455.23	-911.65	993.83	206.9	-1147.1	1021.1	356.41	-1135.6	1013.9	267.91	-1030.6	913.02	520.83	-972.33	899.59	133.8	-1028.5	1075.8	493.07	-1027	1080	162.62	-1161.2	982.9	308.18	-1110.1	674.55	479.99	-1069.6	557.86	443.82	-1141.5	590.46	448.74	-1046.5	641.09	473.9	-1121.1	493.49	431.29	-1121.4	488.68	311.02	-1259.5	361.18	429.43	-1222.5	279.26	419.48	NaN	NaN	NaN	-1195.8	347.22	433.78	-1349.2	117.91	393.32	-1319.2	118.08	306.53	-1416.9	106.14	341.38	-1410.4	71.068	315.36	-1422.9	79.998	378.51	-1268.7	43.063	439.2	-1214.2	39.462	335.18	-1167.9	45.763	385.05	-935.43	635.76	175.05	-855.69	575.22	170.91	NaN	NaN	NaN	-867.83	652.93	151.77	-800.12	508.73	187.99	-794.52	521.47	325.97	-780.13	370.07	177.24	-680.17	321.79	185.8	-743.58	302.22	182.81	-718.38	389.14	181.32	-626.21	134.9	202.75	-602.5	143.61	293.98	-655.51	59.997	262.47	-626.32	49.367	290.66	-640.25	37.483	231.34	-507.62	140.34	160.06	-470.36	171.12	263.71	-450.19	213.55	202.61	-1094.9	1457.5	333.56	-1148.6	1188.9	325.24
6	0.020833	-877.94	1155.2	335.69	-999.21	1406.7	474.97	-1009.7	1396.6	167.8	-1001.8	1701.8	307.6	-927.14	992.25	454.88	-905.44	993.05	206.57	-1141	1020.3	355.74	-1128.8	1012.9	267.35	-1025.3	912.04	520.36	-965.79	898.89	133.35	-1022.6	1074.8	492.63	-1020.8	1079.2	162.2	-1154.9	982.08	307.49	-1106	674.19	479.6	-1066	557.19	443.72	-1137.7	590.23	448.46	-1042.6	640.39	473.68	-1117.9	493.06	431.04	-1117.8	488	310.77	-1257.3	361.67	429	-1220.6	279.54	419.36	NaN	NaN	NaN	-1193.4	347.31	433.63	-1348.3	118.82	393.35	-1318.2	118.77	306.54	-1416.2	107.57	341.4	-1409.9	72.454	315.31	-1422.5	81.498	378.48	-1268.6	43.194	439.22	-1214.1	39.455	335.31	-1167.7	45.64	385.16	-928.14	635.23	174.5	-849.2	574.56	171.11	NaN	NaN	NaN	-860.45	652.61	151.84	-792.87	508.3	188.29	-788	521.11	326.08	-773.89	369.5	177.23	-674.45	320.4	186.29	-737.98	301.32	182.89	-712.06	388.07	181.77	-622.34	133.22	203.04	-598.94	141.42	294.45	-652.25	58.581	262.51	-623.22	47.628	290.68	-637.1	36.062	231.35	-503.88	138.37	160.68	-466.66	168.58	264.52	-446.33	211.23	203.61	-1089.1	1456.3	332.89	-1142.4	1187.6	324.65
